<svg width="72" height="82" viewBox="0 0 72 82" fill="none" xmlns="http://www.w3.org/2000/svg">
<path d="M67.1502 24.5971C65.378 23.2315 62.6797 23.7143 60.9243 25.6222C60.9202 25.6056 60.5432 26.0535 59.8658 26.8001L54.1676 21.669L52.8839 23.0951L58.5538 28.2015C57.6011 29.1908 56.3957 30.3733 55.0039 31.607L49.4744 26.6309L48.1897 28.0533L53.5344 32.8654C53.0067 33.2997 52.463 33.7355 51.8976 34.1638C51.0276 34.815 50.1067 35.4337 49.1747 35.9909L44.7936 32.043L43.5088 33.4697L47.3885 36.9631C46.1271 37.5743 44.8858 38.0371 43.751 38.2359C42.501 38.471 41.4404 38.4062 40.5855 38.1601C40.3731 38.0941 40.1692 38.0283 39.9762 37.9416L38.996 37.526C38.4919 37.322 38.0172 37.1569 37.561 37.0098C36.8565 35.6854 36.4704 33.4679 37.1217 30.8581C37.3043 30.0608 37.584 29.2448 37.9052 28.4228L42.4132 32.484L43.6968 31.0552L38.7135 26.5656C39.3801 25.198 40.1687 23.848 41.0088 22.5879C41.1461 22.3752 41.2921 22.1741 41.4322 21.9682L46.9677 26.9482L48.2513 25.523L42.5587 20.3941C43.6499 18.9291 44.7207 17.6324 45.6468 16.5736L51.5139 21.8623L52.799 20.434L46.9269 15.1484C47.8405 14.1631 48.4218 13.597 48.4061 13.5934C50.1487 11.6165 50.7105 9.19298 49.5742 7.99464C48.4319 6.79149 45.8034 7.47792 43.9168 9.61725C43.9155 9.62303 42.8689 10.802 41.3189 12.7803C39.7773 14.7633 37.7321 17.5534 35.8827 20.8809C34.0594 24.2005 32.3505 28.1283 32.1137 32.308C32.0411 33.57 32.156 34.8438 32.4137 36.0477C30.6684 35.9495 28.7112 36.0982 26.7441 36.5287C22.7172 37.404 18.7995 39.4449 15.5888 41.6954C12.3589 43.9424 9.74128 46.3756 7.90601 48.1958C6.07127 50.0212 5.0092 51.234 5.00342 51.2326C4.05739 52.3104 3.58297 53.5934 3.57672 54.7551C3.56788 55.9205 4.0228 56.9385 4.84609 57.7021C5.67185 58.4662 6.85889 58.6503 7.99362 58.4253C9.13882 58.2002 10.2482 57.5699 11.1155 56.5897C11.1166 56.596 12.0489 55.3431 13.6469 53.5121L19.9094 59.1607L21.1945 57.7324L14.9321 52.0873C16.0034 50.9366 17.2697 49.6742 18.7023 48.4368L24.9724 54.0863L26.2575 52.658L20.2121 47.2111C20.3354 47.1125 20.448 47.0114 20.5772 46.9142C21.7903 45.9827 23.1056 45.1433 24.4577 44.4357L29.1636 48.6724L30.4437 47.2473L26.3379 43.5501C27.5251 43.0618 28.72 42.7108 29.8839 42.5291C31.4401 42.2729 32.9193 42.3154 34.2099 42.5405C34.5558 42.6041 34.8885 42.6802 35.2032 42.7662C35.655 44.2873 35.9397 46.3296 35.6092 48.6497C35.499 49.4914 35.2919 50.3657 35.0416 51.2465L31.5924 48.1375L30.3047 49.5618L34.3845 53.24C33.7899 54.7899 33.0238 56.3301 32.1683 57.7674C32.1308 57.8361 32.088 57.8941 32.0497 57.9591L27.2329 53.6223L25.9512 55.0505L31.007 59.6072C29.9977 61.1317 28.9591 62.5001 28.0059 63.67L22.5733 58.7751L21.2905 60.2005L26.7723 65.1423C25.3401 66.7915 24.3626 67.7829 24.3676 67.7841C23.4712 68.755 22.8649 69.8549 22.6235 70.8829C22.3796 71.899 22.5124 72.8632 23.1368 73.4101C23.7557 73.9549 24.6405 74.1045 25.6588 73.8416C26.6754 73.5827 27.8076 72.902 28.7724 71.8598C28.7651 71.8538 29.9139 70.5619 31.5954 68.3739C33.2658 66.185 35.4676 63.0824 37.3096 59.3588C39.151 55.6638 40.5632 51.2224 40.4992 46.9982C40.4917 46.1278 40.4102 45.2813 40.2924 44.4639C40.794 44.557 41.3143 44.637 41.8596 44.668C43.5423 44.7857 45.3753 44.5652 47.1579 44.0864C50.7404 43.1302 54.1267 41.236 57.0298 39.2782C62.8218 35.3184 66.8805 31.0869 66.9139 31.1154C68.8699 28.9806 68.9333 25.9643 67.1502 24.5971Z" fill="#FC6E00"/>
</svg>
