<svg width="64" height="71" viewBox="0 0 64 71" fill="none" xmlns="http://www.w3.org/2000/svg">
<path d="M1.11611 53.308C2.95938 56.4421 6.82102 57.9442 11.9914 57.9442C14.5296 57.9007 17.0564 57.5899 19.5303 57.017C22.2952 65.6219 26.7836 71 32.0184 71C37.2533 71 41.7324 65.6219 44.5065 57.017C46.9805 57.5899 49.5072 57.9007 52.0455 57.9442C57.2159 57.9442 61.1051 56.4235 62.9207 53.308C63.4948 52.2344 63.8486 51.0557 63.961 49.842C64.0734 48.6282 63.9422 47.404 63.5751 46.2423C62.6903 42.9505 60.3678 39.2415 56.967 35.5325C60.3678 31.8234 62.6903 28.1144 63.5751 24.8226C63.9422 23.6609 64.0734 22.4367 63.961 21.223C63.8486 20.0092 63.4948 18.8305 62.9207 17.757C60.3033 13.2412 53.3819 12.0729 44.4881 13.983C41.7232 5.37809 37.2441 0 32 0C26.7559 0 22.286 5.37809 19.5119 13.983C10.6366 12.0729 3.71512 13.2412 1.07925 17.757C0.505162 18.8305 0.151404 20.0092 0.0389936 21.223C-0.0734165 22.4367 0.0578152 23.6609 0.424891 24.8226C1.34652 28.1144 3.66904 31.8234 7.06986 35.5325C3.66904 39.2415 1.34652 42.9505 0.461756 46.2423C0.0946804 47.404 -0.0365512 48.6282 0.0758589 49.842C0.188269 51.0557 0.542026 52.2344 1.11611 53.308ZM39.2072 58.1575C37.1427 63.3501 34.4608 66.4193 32.0184 66.4193C29.5761 66.4193 26.8849 63.3501 24.8297 58.1575C24.544 57.4342 24.2675 56.6739 24.0187 55.895C26.744 55.0486 29.4155 54.036 32.0184 52.8629C34.6205 54.0486 37.2921 55.0736 40.0182 55.9321C39.7601 56.6739 39.4929 57.4342 39.2072 58.1575ZM21.134 35.5325C21.134 33.4647 21.2169 31.4247 21.3644 29.4404C22.9864 28.3462 24.7099 27.2521 26.5624 26.1857C28.4149 25.1194 30.2489 24.1828 32.0092 23.3298C33.7972 24.1828 35.622 25.1379 37.4561 26.1857C39.2901 27.2335 41.0412 28.3369 42.6541 29.4404C42.8015 31.4247 42.8845 33.4647 42.8845 35.5325C42.8845 37.6002 42.8015 39.6402 42.6541 41.6245C41.032 42.7187 39.3085 43.8129 37.4561 44.8792C35.6036 45.9455 33.7695 46.8821 32.0092 47.7351C30.2213 46.8821 28.3964 45.9363 26.5624 44.8792C24.7283 43.8221 22.9864 42.728 21.3644 41.6245C21.2169 39.6402 21.134 37.6002 21.134 35.5325ZM16.5258 38.0917C15.4874 37.2324 14.5074 36.3793 13.5858 35.5325C14.5074 34.6856 15.4997 33.8325 16.5627 32.9732C16.5627 33.817 16.5627 34.6701 16.5627 35.5325C16.5627 36.3948 16.5442 37.2479 16.5719 38.0917H16.5258ZM22.0556 23.4874C22.2676 22.18 22.5164 20.9189 22.7929 19.6949C23.9818 20.0658 25.2076 20.4831 26.4794 20.956C25.7513 21.3454 25.0325 21.7442 24.3044 22.1614C23.5763 22.5787 22.8021 23.033 22.0556 23.4781V23.4874ZM37.5482 20.9467C38.8016 20.4738 40.0274 20.0195 41.2348 19.6856C41.5112 20.9096 41.7601 22.1707 41.9721 23.4781C41.2409 23.0269 40.5005 22.5849 39.7509 22.1521C39.0228 21.7442 38.2947 21.3454 37.5482 20.9467ZM47.4465 33.001C48.5279 33.8418 49.5294 34.6856 50.4511 35.5325C49.5294 36.3793 48.5371 37.2324 47.4742 38.0917C47.4742 37.2479 47.4742 36.3948 47.4742 35.5325C47.4742 34.6701 47.4926 33.817 47.465 32.9732L47.4465 33.001ZM41.9813 47.5868C41.7693 48.8942 41.5205 50.1553 41.244 51.3793C40.052 51.0145 38.8231 50.5942 37.5574 50.1182C38.2855 49.7287 39.0044 49.33 39.7325 48.9128C40.4606 48.4955 41.2348 48.0319 41.9813 47.5868ZM24.2859 48.9128C25.014 49.33 25.7421 49.7287 26.461 50.1182C25.2322 50.5942 24.0033 51.0145 22.7745 51.3793C22.498 50.1553 22.2491 48.8942 22.0372 47.5868C22.7806 48.0319 23.5302 48.4708 24.2859 48.9035V48.9128ZM58.9393 50.9713C57.52 53.41 52.4879 53.9941 45.7323 52.5569C46.3498 49.8054 46.7992 47.0184 47.0779 44.2116C49.3917 42.5539 51.6046 40.758 53.7044 38.8335C56.6905 42.1345 58.4969 45.1481 59.1236 47.4848C59.5231 48.6257 59.4568 49.8794 58.9393 50.9713ZM52.2943 17.7291C55.6583 17.7291 58.0361 18.5358 58.9393 20.0936C59.2005 20.6394 59.3513 21.2319 59.383 21.8368C59.4146 22.4417 59.3265 23.0469 59.1236 23.6172C58.5061 25.9446 56.6905 28.9675 53.7044 32.2685C51.6046 30.344 49.3917 28.5481 47.0779 26.8904C46.7992 24.0836 46.3498 21.2966 45.7323 18.5451C47.8862 18.0483 50.085 17.7749 52.2943 17.7291ZM24.8297 12.9074C26.8849 7.73332 29.5761 4.63628 32.0184 4.63628C34.4608 4.63628 37.1427 7.71477 39.2072 12.9074C39.4929 13.6307 39.7694 14.391 40.0182 15.1699C37.2929 16.0198 34.6214 17.0355 32.0184 18.2113C29.4164 17.0229 26.7448 15.9948 24.0187 15.1328C24.2767 14.391 24.544 13.6307 24.8297 12.9074ZM5.09757 20.0936C6.0192 18.5358 8.36936 17.7291 11.7425 17.7291C13.9506 17.7628 16.1494 18.0238 18.3046 18.508C17.6871 21.2595 17.2377 24.0465 16.959 26.8533C14.6452 28.5111 12.4324 30.307 10.3324 32.2314C7.34635 28.9304 5.53995 25.9168 4.91324 23.5801C4.51377 22.4392 4.58006 21.1855 5.09757 20.0936ZM4.91324 47.4384C5.53073 45.111 7.34635 42.0882 10.3324 38.7871C12.4324 40.7115 14.6452 42.5075 16.959 44.1652C17.2377 46.972 17.687 49.759 18.3046 52.5105C11.5213 53.9478 6.51688 53.3636 5.09757 50.9249C4.58006 49.8331 4.51377 48.5793 4.91324 47.4384Z" fill="#FC6E00"/>
</svg>
